<svg xmlns="http://www.w3.org/2000/svg" version="1.1" xmlns:xlink="http://www.w3.org/1999/xlink" xmlns:svgjs="http://svgjs.dev/svgjs" width="1000" height="353" viewBox="0 0 1000 353"><g transform="matrix(1,0,0,1,-0.6056348047761162,0.5260843047618664)"><svg viewBox="0 0 396 140" data-background-color="#181717" preserveAspectRatio="xMidYMid meet" height="353" width="1000" xmlns="http://www.w3.org/2000/svg" xmlns:xlink="http://www.w3.org/1999/xlink"><g id="tight-bounds" transform="matrix(1,0,0,1,0.24008861730862918,-0.20864533333332247)"><svg viewBox="0 0 395.52 140.41729066666664" height="140.41729066666664" width="395.52"><g><svg viewBox="0 0 395.52 140.41729066666664" height="140.41729066666664" width="395.52"><g><svg viewBox="0 0 395.52 140.41729066666664" height="140.41729066666664" width="395.52"><g id="textblocktransform"><svg viewBox="0 0 395.52 140.41729066666664" height="140.41729066666664" width="395.52" id="textblock"><g><svg viewBox="0 0 395.52 140.41729066666664" height="140.41729066666664" width="395.52"><path d="M394.594 30.117C392.735 15.542 387.435 11.49 387.435 11.49 371.165-3.523 350.86-0.287 332.619 1.87 300.414 1.957 268.339 5.164 236.208 6.884 168.767 7.146 100.749 2.832 33.643 13.472 27.339 16.737-6.54 14.113 1.121 31.982 3.129 39.416 10.456 47.665 10.232 54.487 11.236 55.682 12.631 52.942 13.226 54.662 15.309 59.297 18.711 57.11 21.501 59.85 17.614 67.167 20.403 73.26 23.062 79.644 18.377 81.305 12.371 80.518 9.675 86.028 9.396 90.021 7.89 89.263 6.235 89.088 5.026 88.972 2.59 89.409 2.999 90.662 4.394 94.948-1.594 97.425 2.162 101.623-0.422 106.171 3.948 110.106 3.353 115.032 3.278 116.023 3.687 116.869 4.338 117.102 7.22 118.355 3.018 120.804 3.464 123.457 33.029 141.588 65.104 129.054 95.394 137.391 103.259 131.561 97.346 139.46 100.489 138.236 102.943 136.808 104.728 142.725 107.499 139.373 107.927 138.411 107.276 136.137 108.8 136.575 109.6 136.808 110.307 136.749 110.418 135.409 110.586 133.397 109.117 134.651 108.726 133.601 112.947 128.296 111.906 140.918 115.866 140.393 115.68 138.848 114.528 136.633 116.889 136.924 119.232 134.709 119.306 132.872 121.389 137.857 121.463 138.936 121.835 139.694 122.43 140.218 128.938 134.796 135.409 142.142 142.233 139.694 146.417 137.012 150.433 141.151 154.672 140.131 156.16 139.315 157.666 137.857 159.098 140.306 176.632 140.831 195.319 138.644 211.943 140.393 256.364 137.128 303.835 141.734 350.674 137.42 361.719 135.758 373.192 133.397 383.958 131.502 383.958 131.502 392.679 126.314 392.679 102.993S394.538 82.588 394.817 64.019C395.096 45.45 396.398 44.692 394.538 30.117Z" opacity="1" fill="#fa1306" data-fill-palette-color="tertiary"></path><g transform="matrix(1,0,0,1,55.76832,26.230666666666668)"><svg width="283.98335999999995" viewBox="1.2000000476837158 -39.040000915527344 158.1800079345703 49" height="87.95595733333332" data-palette-color="#131313"><path d="M1.2-24.51L1.2-24.51Q1.2-26.68 2.03-28.59 2.86-30.49 4.28-31.92 5.71-33.35 7.62-34.18 9.52-35.01 11.69-35.01L11.69-35.01 27.76-35.01 27.76-28 11.69-28Q10.96-28 10.33-27.73 9.69-27.47 9.22-26.99 8.74-26.51 8.47-25.88 8.2-25.24 8.2-24.51L8.2-24.51Q8.2-23.78 8.47-23.13 8.74-22.49 9.22-22.01 9.69-21.53 10.33-21.26 10.96-21 11.69-21L11.69-21 18.7-21Q20.87-21 22.79-20.18 24.71-19.36 26.14-17.93 27.56-16.5 28.38-14.59 29.2-12.67 29.2-10.5L29.2-10.5Q29.2-8.33 28.38-6.42 27.56-4.52 26.14-3.09 24.71-1.66 22.79-0.83 20.87 0 18.7 0L18.7 0 3.15 0 3.15-7.01 18.7-7.01Q19.43-7.01 20.07-7.28 20.7-7.54 21.18-8.02 21.66-8.5 21.92-9.13 22.19-9.77 22.19-10.5L22.19-10.5Q22.19-11.23 21.92-11.87 21.66-12.5 21.18-12.98 20.7-13.45 20.07-13.72 19.43-13.99 18.7-13.99L18.7-13.99 11.69-13.99Q9.52-13.99 7.62-14.82 5.71-15.65 4.28-17.08 2.86-18.51 2.03-20.42 1.2-22.34 1.2-24.51ZM39.55-1.76L39.55 9.96 32.83 9.96 32.83-26.15 34.45-26.15 37.11-23Q38.01-23.85 39.08-24.61 40.16-25.37 41.32-25.92 42.48-26.46 43.72-26.78 44.97-27.1 46.24-27.1L46.24-27.1Q49-27.1 51.43-26.11 53.85-25.12 55.67-23.32 57.49-21.51 58.54-18.96 59.59-16.41 59.59-13.31L59.59-13.31Q59.59-10.08 58.54-7.51 57.49-4.93 55.67-3.14 53.85-1.34 51.43-0.39 49 0.56 46.24 0.56L46.24 0.56Q45.36 0.56 44.49 0.37 43.63 0.17 42.78-0.16 41.94-0.49 41.12-0.9 40.31-1.32 39.55-1.76L39.55-1.76ZM52.9-13.31L52.9-13.31Q52.9-14.97 52.38-16.28 51.85-17.6 50.95-18.52 50.05-19.43 48.83-19.92 47.6-20.41 46.24-20.41L46.24-20.41Q44.87-20.41 43.66-19.92 42.45-19.43 41.55-18.52 40.65-17.6 40.12-16.28 39.6-14.97 39.6-13.31L39.6-13.31Q39.6-11.72 40.12-10.4 40.65-9.08 41.55-8.15 42.45-7.23 43.66-6.71 44.87-6.2 46.24-6.2L46.24-6.2Q47.6-6.2 48.83-6.71 50.05-7.23 50.95-8.15 51.85-9.08 52.38-10.4 52.9-11.72 52.9-13.31ZM88.54-13.31L88.54-13.31Q88.54-10.38 87.5-7.85 86.45-5.32 84.64-3.48 82.83-1.64 80.4-0.57 77.97 0.49 75.19 0.49L75.19 0.49Q72.43 0.49 70-0.57 67.57-1.64 65.75-3.48 63.94-5.32 62.89-7.85 61.84-10.38 61.84-13.31L61.84-13.31Q61.84-16.28 62.89-18.82 63.94-21.36 65.75-23.21 67.57-25.05 70-26.1 72.43-27.15 75.19-27.15L75.19-27.15Q77.97-27.15 80.4-26.16 82.83-25.17 84.64-23.35 86.45-21.53 87.5-18.98 88.54-16.43 88.54-13.31ZM81.83-13.31L81.83-13.31Q81.83-14.92 81.31-16.22 80.78-17.53 79.88-18.47 78.97-19.41 77.77-19.91 76.56-20.41 75.19-20.41L75.19-20.41Q73.82-20.41 72.61-19.91 71.41-19.41 70.52-18.47 69.62-17.53 69.11-16.22 68.6-14.92 68.6-13.31L68.6-13.31Q68.6-11.79 69.11-10.5 69.62-9.2 70.52-8.25 71.41-7.3 72.61-6.75 73.82-6.2 75.19-6.2L75.19-6.2Q76.56-6.2 77.77-6.71 78.97-7.23 79.88-8.15 80.78-9.08 81.31-10.4 81.83-11.72 81.83-13.31ZM100.41-19.51L100.41 0 93.74 0 93.74-19.51 90.5-19.51 90.5-26.15 93.74-26.15 93.74-27.39Q93.74-29.81 94.66-31.93 95.57-34.06 97.17-35.63 98.77-37.21 100.9-38.12 103.02-39.04 105.44-39.04L105.44-39.04 110.44-39.04 110.44-32.4 105.44-32.4Q104.36-32.4 103.45-32.02 102.53-31.64 101.86-30.97 101.19-30.3 100.8-29.38 100.41-28.47 100.41-27.39L100.41-27.39 100.41-26.15 108.59-26.15 108.59-19.51 100.41-19.51ZM118.45-36.55L118.45 0 111.73 0 111.73-36.55 118.45-36.55ZM131.38-33.25L131.38-33.25Q131.38-32.32 131.03-31.52 130.68-30.71 130.07-30.11 129.46-29.52 128.64-29.16 127.82-28.81 126.89-28.81L126.89-28.81Q125.96-28.81 125.15-29.16 124.33-29.52 123.73-30.11 123.13-30.71 122.78-31.52 122.42-32.32 122.42-33.25L122.42-33.25Q122.42-34.16 122.78-34.97 123.13-35.79 123.73-36.39 124.33-36.99 125.15-37.34 125.96-37.7 126.89-37.7L126.89-37.7Q127.82-37.7 128.64-37.34 129.46-36.99 130.07-36.39 130.68-35.79 131.03-34.97 131.38-34.16 131.38-33.25ZM130.24-26.15L130.24 0 123.52 0 123.52-26.15 130.24-26.15ZM149.81-13.4L159.38 0 151.23 0 146.03-8.01 140.78 0 132.63 0 142.17-13.4 132.63-26.29 140.78-26.29 146.03-18.8 151.23-26.29 159.38-26.29 149.81-13.4Z" opacity="1" transform="matrix(1,0,0,1,0,0)" fill="#131313" class="undefined-text-0" data-fill-palette-color="quaternary" id="text-0"></path></svg></g></svg></g></svg></g></svg></g></svg></g><defs></defs></svg><rect width="395.52" height="140.41729066666664" fill="none" stroke="none" visibility="hidden"></rect></g></svg></g></svg>